<mxfile host="app.diagrams.net" modified="2024-06-16T15:26:46.002Z" agent="Mozilla/5.0 (Macintosh; Intel Mac OS X 10_15_7) AppleWebKit/537.36 (KHTML, like Gecko) Chrome/125.0.0.0 Safari/537.36" etag="2fdMsyo-DA8LXYP-ibG2" version="24.2.5" type="device">
  <diagram name="Seite-1" id="DFggoNmNVaZoQejzeXET">
    <mxGraphModel dx="1060" dy="808" grid="1" gridSize="10" guides="1" tooltips="1" connect="1" arrows="1" fold="1" page="1" pageScale="1" pageWidth="827" pageHeight="1169" math="0" shadow="0">
      <root>
        <mxCell id="0" />
        <mxCell id="1" parent="0" />
        <mxCell id="2" value="ROI: 1.1" style="rounded=1;whiteSpace=wrap;html=1;" vertex="1" parent="1">
          <mxGeometry x="20" y="20" width="80" height="40" as="geometry" />
        </mxCell>
        <mxCell id="3" value="Sharpe Ratio: 1.5" style="rounded=1;whiteSpace=wrap;html=1;" vertex="1" parent="1">
          <mxGeometry x="110" y="20" width="100" height="40" as="geometry" />
        </mxCell>
        <mxCell id="4" value="Win Rate: 75.0%" style="rounded=1;whiteSpace=wrap;html=1;" vertex="1" parent="1">
          <mxGeometry x="220" y="20" width="100" height="40" as="geometry" />
        </mxCell>
        <mxCell id="5" value="Download PDF" style="shape=rect;rounded=1;whiteSpace=wrap;html=1;strokeColor=#d68cd6;fillColor=#d68cd6;" vertex="1" parent="1">
          <mxGeometry x="330" y="20" width="100" height="40" as="geometry" />
        </mxCell>
        <mxCell id="6" value="Exchange: Binance" style="rounded=1;whiteSpace=wrap;html=1;" vertex="1" parent="1">
          <mxGeometry x="20" y="80" width="120" height="30" as="geometry" />
        </mxCell>
        <mxCell id="7" value="Pair: ETHUSDT" style="rounded=1;whiteSpace=wrap;html=1;" vertex="1" parent="1">
          <mxGeometry x="150" y="80" width="100" height="30" as="geometry" />
        </mxCell>
        <mxCell id="8" value="Second Pair: LINKUSDT" style="rounded=1;whiteSpace=wrap;html=1;" vertex="1" parent="1">
          <mxGeometry x="260" y="80" width="120" height="30" as="geometry" />
        </mxCell>
        <mxCell id="9" value="Timeframe: Hourly" style="rounded=1;whiteSpace=wrap;html=1;" vertex="1" parent="1">
          <mxGeometry x="390" y="80" width="100" height="30" as="geometry" />
        </mxCell>
        <mxCell id="10" value="Duration: 2 Weeks" style="rounded=1;whiteSpace=wrap;html=1;" vertex="1" parent="1">
          <mxGeometry x="500" y="80" width="100" height="30" as="geometry" />
        </mxCell>
        <mxCell id="11" value="Charts" style="shape=rect;rounded=1;whiteSpace=wrap;html=1;strokeColor=#0000FF;fillColor=#0000FF;" vertex="1" parent="1">
          <mxGeometry x="610" y="80" width="80" height="30" as="geometry" />
        </mxCell>
        <mxCell id="12" value="Signal: ZSCORE" style="rounded=1;whiteSpace=wrap;html=1;" vertex="1" parent="1">
          <mxGeometry x="20" y="130" width="120" height="30" as="geometry" />
        </mxCell>
        <mxCell id="13" value="Long Ticker: ETHUSDT" style="rounded=1;whiteSpace=wrap;html=1;" vertex="1" parent="1">
          <mxGeometry x="150" y="130" width="120" height="30" as="geometry" />
        </mxCell>
        <mxCell id="14" value="Window: 21" style="rounded=1;whiteSpace=wrap;html=1;" vertex="1" parent="1">
          <mxGeometry x="280" y="130" width="80" height="30" as="geometry" />
        </mxCell>
        <mxCell id="15" value="Open Trade At: 1.5" style="rounded=1;whiteSpace=wrap;html=1;" vertex="1" parent="1">
          <mxGeometry x="370" y="130" width="100" height="30" as="geometry" />
        </mxCell>
        <mxCell id="16" value="Close Trade At: 1.5" style="rounded=1;whiteSpace=wrap;html=1;" vertex="1" parent="1">
          <mxGeometry x="480" y="130" width="100" height="30" as="geometry" />
        </mxCell>
        <mxCell id="17" value="Close Timestamps: 0" style="rounded=1;whiteSpace=wrap;html=1;" vertex="1" parent="1">
          <mxGeometry x="590" y="130" width="120" height="30" as="geometry" />
        </mxCell>
        <mxCell id="18" value="Lag Result: Yes" style="rounded=1;whiteSpace=wrap;html=1;" vertex="1" parent="1">
          <mxGeometry x="720" y="130" width="100" height="30" as="geometry" />
        </mxCell>
        <mxCell id="19" value="Backtest" style="shape=rect;rounded=1;whiteSpace=wrap;html=1;strokeColor=#0000FF;fillColor=#0000FF;" vertex="1" parent="1">
          <mxGeometry x="830" y="130" width="100" height="30" as="geometry" />
        </mxCell>
      </root>
    </mxGraphModel>
  </diagram>
</mxfile>
